<mxfile host="app.diagrams.net" modified="2024-02-26T08:36:11.769Z" agent="Mozilla/5.0 (Windows NT 10.0; Win64; x64) AppleWebKit/537.36 (KHTML, like Gecko) Chrome/121.0.0.0 Safari/537.36 Edg/121.0.0.0" etag="f3m_nU4LCGn1i5RtemLH" version="23.1.6" type="github">
  <diagram name="第 1 页" id="Jo3htZ62krcDXCL0_ntD">
    <mxGraphModel dx="1386" dy="759" grid="1" gridSize="10" guides="1" tooltips="1" connect="1" arrows="1" fold="1" page="1" pageScale="1" pageWidth="827" pageHeight="1169" math="0" shadow="0">
      <root>
        <mxCell id="0" />
        <mxCell id="1" parent="0" />
        <mxCell id="y0Nwj2HXX0UmU1sFxXNI-1" value="display_manager" style="rounded=1;whiteSpace=wrap;html=1;fillColor=#fff2cc;strokeColor=#d6b656;fontSize=14;" vertex="1" parent="1">
          <mxGeometry x="120" y="280" width="120" height="60" as="geometry" />
        </mxCell>
        <mxCell id="y0Nwj2HXX0UmU1sFxXNI-3" value="" style="shape=curlyBracket;whiteSpace=wrap;html=1;rounded=1;labelPosition=left;verticalLabelPosition=middle;align=right;verticalAlign=middle;" vertex="1" parent="1">
          <mxGeometry x="240" y="250" width="20" height="120" as="geometry" />
        </mxCell>
        <mxCell id="y0Nwj2HXX0UmU1sFxXNI-5" value="libDisplayManagerClient" style="ellipse;whiteSpace=wrap;html=1;" vertex="1" parent="1">
          <mxGeometry x="260" y="190" width="150" height="80" as="geometry" />
        </mxCell>
        <mxCell id="y0Nwj2HXX0UmU1sFxXNI-6" value="libdpuhal" style="ellipse;whiteSpace=wrap;html=1;" vertex="1" parent="1">
          <mxGeometry x="264" y="320" width="150" height="80" as="geometry" />
        </mxCell>
        <mxCell id="y0Nwj2HXX0UmU1sFxXNI-7" value="" style="shape=curlyBracket;whiteSpace=wrap;html=1;rounded=1;labelPosition=left;verticalLabelPosition=middle;align=right;verticalAlign=middle;" vertex="1" parent="1">
          <mxGeometry x="414" y="300" width="20" height="120" as="geometry" />
        </mxCell>
        <mxCell id="y0Nwj2HXX0UmU1sFxXNI-8" value="libdpuextin" style="ellipse;whiteSpace=wrap;html=1;" vertex="1" parent="1">
          <mxGeometry x="450" y="270" width="95" height="60" as="geometry" />
        </mxCell>
        <mxCell id="y0Nwj2HXX0UmU1sFxXNI-10" value="libdpudisp" style="ellipse;whiteSpace=wrap;html=1;" vertex="1" parent="1">
          <mxGeometry x="450" y="390" width="95" height="60" as="geometry" />
        </mxCell>
        <mxCell id="y0Nwj2HXX0UmU1sFxXNI-11" value="libdpucap" style="ellipse;whiteSpace=wrap;html=1;" vertex="1" parent="1">
          <mxGeometry x="450" y="330" width="95" height="60" as="geometry" />
        </mxCell>
      </root>
    </mxGraphModel>
  </diagram>
</mxfile>
